<?xml version="1.0" encoding="iso-8859-1"?>
<!-- Generator: Adobe Illustrator 19.0.0, SVG Export Plug-In . SVG Version: 6.00 Build 0)  -->
<svg version="1.1" id="Layer_1" xmlns="http://www.w3.org/2000/svg" xmlns:xlink="http://www.w3.org/1999/xlink" x="0px" y="0px"
	 viewBox="0 0 512 512" style="enable-background:new 0 0 512 512;" xml:space="preserve">
<path style="fill:#FDC794;" d="M505.884,346.041c7.062-5.297,7.945-15.89,2.648-22.952c-11.476-15.007-20.303-19.421-58.262,0.883
	l-76.8,46.786c-23.834,12.359-84.745,8.828-111.228,8.828c0,0,62.676,4.414,37.959-32.662
	c-12.359-18.538-33.545-29.131-56.497-29.131h-34.428c-20.303,0-39.724-6.179-55.614-17.655
	c-37.959-29.131-109.462,26.483-109.462,26.483v158.897h123.586c17.655,0,35.31-1.766,52.966-4.414l114.759-17.655
	c3.531,0,7.945-0.883,11.476-0.883l0,0c9.71-0.883,17.655-6.179,24.717-12.359L505.884,346.041z"/>
<polygon style="fill:#48A0DC;" points="0.063,512 44.201,512 44.201,300.138 0.063,300.138 "/>
<path style="fill:#E64C3C;" d="M272.835,56.497C286.077,27.366,315.208,0,349.635,0c46.786,0,82.097,36.193,86.51,81.214
	c0,0,2.648,11.476-2.648,31.779c-7.062,27.366-22.952,52.083-45.021,70.621l-111.228,96.221c-0.883,0.883-2.648,0.883-3.531,0
	l-112.11-96.221c-22.069-18.538-37.959-43.255-45.021-70.621c-5.297-20.303-2.648-31.779-2.648-31.779
	C118.353,36.193,150.132,0,196.918,0C231.346,0,260.477,27.366,272.835,56.497"/>
<g>
	<path style="fill:#F9A671;" d="M262.242,388.414h-85.628c-5.297,0-8.828-3.531-8.828-8.828s3.531-8.828,8.828-8.828h85.628
		c5.297,0,8.828,3.531,8.828,8.828S267.539,388.414,262.242,388.414z"/>
	<path style="fill:#F9A671;" d="M141.304,414.897c-5.297,0-8.828-3.531-8.828-8.828c0-22.069,16.772-35.31,44.138-35.31
		c5.297,0,8.828,3.531,8.828,8.828s-3.531,8.828-8.828,8.828c-26.483,0-26.483,13.241-26.483,17.655
		C150.132,411.366,146.601,414.897,141.304,414.897z"/>
</g>
<g>
</g>
<g>
</g>
<g>
</g>
<g>
</g>
<g>
</g>
<g>
</g>
<g>
</g>
<g>
</g>
<g>
</g>
<g>
</g>
<g>
</g>
<g>
</g>
<g>
</g>
<g>
</g>
<g>
</g>
</svg>
